<?xml version="1.0" encoding="UTF-8"?>
<!DOCTYPE svg PUBLIC "-//W3C//DTD SVG 1.1//EN" "http://www.w3.org/Graphics/SVG/1.1/DTD/svg11.dtd">
<svg xmlns="http://www.w3.org/2000/svg" version="1.1" width="1725px" height="1483px" style="shape-rendering:geometricPrecision; text-rendering:geometricPrecision; image-rendering:optimizeQuality; fill-rule:evenodd; clip-rule:evenodd" xmlns:xlink="http://www.w3.org/1999/xlink">
<g><path style="opacity:1" fill="#fefefe" d="M -0.5,-0.5 C 574.5,-0.5 1149.5,-0.5 1724.5,-0.5C 1724.5,493.833 1724.5,988.167 1724.5,1482.5C 1149.5,1482.5 574.5,1482.5 -0.5,1482.5C -0.5,988.167 -0.5,493.833 -0.5,-0.5 Z"/></g>
<g><path style="opacity:1" fill="#87c377" d="M 549.5,50.5 C 576.258,56.2027 598.258,69.536 615.5,90.5C 617.801,94.0923 619.301,98.0923 620,102.5C 620.718,101.549 621.551,101.383 622.5,102C 626.762,106.691 629.262,112.191 630,118.5C 630.414,118.043 630.914,117.709 631.5,117.5C 633.055,120.662 635.055,123.328 637.5,125.5C 639.784,130.637 641.451,135.97 642.5,141.5C 643.932,151.891 644.598,162.391 644.5,173C 643.45,192.697 642.117,212.363 640.5,232C 641.093,235.151 641.593,238.318 642,241.5C 642.414,241.043 642.914,240.709 643.5,240.5C 644.763,247.076 646.429,253.41 648.5,259.5C 653.764,272.943 659.43,286.276 665.5,299.5C 665.655,305.121 667.488,310.121 671,314.5C 671.351,318.556 672.685,322.223 675,325.5C 676.147,324.542 677.147,324.875 678,326.5C 679.869,331.107 681.535,335.773 683,340.5C 685.537,343.641 688.037,346.641 690.5,349.5C 694.146,354.781 697.313,360.448 700,366.5C 700.671,367.252 701.504,367.586 702.5,367.5C 689.315,375.014 676.648,383.347 664.5,392.5C 659.833,386.5 655.167,380.5 650.5,374.5C 650.649,373.448 650.483,372.448 650,371.5C 639.929,360.593 629.096,350.593 617.5,341.5C 606.747,332.946 595.414,325.113 583.5,318C 573.89,313.525 564.223,309.358 554.5,305.5C 553.942,304.21 552.942,303.377 551.5,303C 544.959,302.557 538.625,301.224 532.5,299C 520.157,298.619 507.824,298.119 495.5,297.5C 462.459,291.303 435.959,274.637 416,247.5C 412.236,241.637 408.736,235.637 405.5,229.5C 403.436,224.973 401.769,220.307 400.5,215.5C 397.187,201.707 395.187,187.707 394.5,173.5C 394.48,163.086 395.147,152.753 396.5,142.5C 398.367,139.083 399.867,135.416 401,131.5C 402.016,132.634 402.683,132.301 403,130.5C 405.453,123.927 407.62,117.26 409.5,110.5C 409.427,108.973 410.094,107.973 411.5,107.5C 413.229,106.883 414.729,105.883 416,104.5C 419.61,97.2046 424.443,90.7046 430.5,85C 432.081,84.2935 433.581,83.4601 435,82.5C 436.012,79.7982 437.512,77.4649 439.5,75.5C 449.764,66.1995 461.431,59.1995 474.5,54.5C 478.897,54.2569 483.23,53.5902 487.5,52.5C 493.197,54.8928 497.864,53.7262 501.5,49C 517.67,48.0126 533.67,48.5126 549.5,50.5 Z"/></g>
<g><path style="opacity:1" fill="#91c384" d="M 549.5,50.5 C 533.67,48.5126 517.67,48.0126 501.5,49C 497.864,53.7262 493.197,54.8928 487.5,52.5C 483.23,53.5902 478.897,54.2569 474.5,54.5C 492.702,47.182 511.702,44.682 531.5,47C 537.911,46.8512 543.911,48.0178 549.5,50.5 Z"/></g>
<g><path style="opacity:1" fill="#9cc590" d="M 1115.5,64.5 C 1116.83,65.1667 1118.17,65.8333 1119.5,66.5C 1104.02,65.8946 1088.69,66.8946 1073.5,69.5C 1073.92,68.7784 1074.58,68.2784 1075.5,68C 1088.69,65.1845 1102.02,64.0179 1115.5,64.5 Z"/></g>
<g><path style="opacity:1" fill="#87c377" d="M 1119.5,66.5 C 1133.13,67.9329 1146.13,71.5995 1158.5,77.5C 1184.13,91.347 1202.96,111.68 1215,138.5C 1215.49,139.793 1215.66,141.127 1215.5,142.5C 1217.81,151.98 1219.65,161.646 1221,171.5C 1221.67,179.5 1221.67,187.5 1221,195.5C 1219.62,201.432 1218.79,207.432 1218.5,213.5C 1209.82,245.011 1191.49,269.178 1163.5,286C 1153.28,291.445 1142.61,295.779 1131.5,299C 1123.78,302.253 1116.45,306.086 1109.5,310.5C 1106.95,311.606 1104.28,312.439 1101.5,313C 1096.27,318.584 1090.27,322.918 1083.5,326C 1082.14,328.034 1081.14,330.201 1080.5,332.5C 1062.41,348.586 1046.08,366.253 1031.5,385.5C 1024.75,380.744 1017.75,376.41 1010.5,372.5C 1002.5,367.833 994.5,363.167 986.5,358.5C 985.735,356.071 984.069,354.738 981.5,354.5C 993.241,317.321 998.074,278.988 996,239.5C 994.882,236.861 994.382,234.027 994.5,231C 994.547,228.111 994.88,225.278 995.5,222.5C 994.817,219.539 993.984,219.205 993,221.5C 992.667,218.167 992.333,214.833 992,211.5C 990.971,207.734 989.804,204.067 988.5,200.5C 988.5,200.167 988.5,199.833 988.5,199.5C 988.349,185.484 988.682,171.484 989.5,157.5C 1000.69,112.303 1028.69,82.9696 1073.5,69.5C 1088.69,66.8946 1104.02,65.8946 1119.5,66.5 Z"/></g>
<g><path style="opacity:1" fill="#eaf8e4" d="M 1158.5,77.5 C 1146.13,71.5995 1133.13,67.9329 1119.5,66.5C 1118.17,65.8333 1116.83,65.1667 1115.5,64.5C 1117.14,64.7135 1118.64,64.3802 1120,63.5C 1130.93,66.0497 1141.77,69.2163 1152.5,73C 1155.18,73.8136 1157.18,75.3136 1158.5,77.5 Z"/></g>
<g><path style="opacity:1" fill="#95c28a" d="M 439.5,75.5 C 437.512,77.4649 436.012,79.7982 435,82.5C 433.581,83.4601 432.081,84.2935 430.5,85C 424.443,90.7046 419.61,97.2046 416,104.5C 414.729,105.883 413.229,106.883 411.5,107.5C 418.37,94.633 427.703,83.9663 439.5,75.5 Z"/></g>
<g><path style="opacity:1" fill="#94c387" d="M 615.5,90.5 C 625.081,100.641 632.414,112.308 637.5,125.5C 635.055,123.328 633.055,120.662 631.5,117.5C 630.914,117.709 630.414,118.043 630,118.5C 629.262,112.191 626.762,106.691 622.5,102C 621.551,101.383 620.718,101.549 620,102.5C 619.301,98.0923 617.801,94.0923 615.5,90.5 Z"/></g>
<g><path style="opacity:1" fill="#97c48b" d="M 409.5,110.5 C 407.62,117.26 405.453,123.927 403,130.5C 402.683,132.301 402.016,132.634 401,131.5C 399.867,135.416 398.367,139.083 396.5,142.5C 398.908,130.916 403.242,120.249 409.5,110.5 Z"/></g>
<g><path style="opacity:1" fill="#9bc790" d="M 1215.5,142.5 C 1223.87,163.43 1225.7,185.097 1221,207.5C 1220.16,209.611 1219.32,211.611 1218.5,213.5C 1218.79,207.432 1219.62,201.432 1221,195.5C 1221.67,187.5 1221.67,179.5 1221,171.5C 1219.65,161.646 1217.81,151.98 1215.5,142.5 Z"/></g>
<g><path style="opacity:1" fill="#96c38b" d="M 396.5,142.5 C 395.147,152.753 394.48,163.086 394.5,173.5C 395.187,187.707 397.187,201.707 400.5,215.5C 393.919,197.537 391.252,178.87 392.5,159.5C 393.418,153.744 394.751,148.077 396.5,142.5 Z"/></g>
<g><path style="opacity:1" fill="#99c58d" d="M 989.5,157.5 C 988.682,171.484 988.349,185.484 988.5,199.5C 985.749,185.438 986.082,171.438 989.5,157.5 Z"/></g>
<g><path style="opacity:1" fill="#effbeb" d="M 392.5,159.5 C 391.252,178.87 393.919,197.537 400.5,215.5C 401.769,220.307 403.436,224.973 405.5,229.5C 404.042,229.421 402.708,228.921 401.5,228C 402.022,227.439 402.355,226.772 402.5,226C 392.678,204.762 389.345,182.595 392.5,159.5 Z"/></g>
<g><path style="opacity:1" fill="#91c183" d="M 642.5,141.5 C 644.218,147.426 645.552,153.426 646.5,159.5C 646.666,168.506 646.5,177.506 646,186.5C 643.388,199.885 642.888,213.219 644.5,226.5C 644.978,237.615 646.311,248.615 648.5,259.5C 646.429,253.41 644.763,247.076 643.5,240.5C 642.914,240.709 642.414,241.043 642,241.5C 641.593,238.318 641.093,235.151 640.5,232C 642.117,212.363 643.45,192.697 644.5,173C 644.598,162.391 643.932,151.891 642.5,141.5 Z"/></g>
<g><path style="opacity:1" fill="#e6f6e1" d="M 646.5,159.5 C 647.166,164.656 647.499,169.989 647.5,175.5C 647.032,192.654 646.032,209.654 644.5,226.5C 642.888,213.219 643.388,199.885 646,186.5C 646.5,177.506 646.666,168.506 646.5,159.5 Z"/></g>
<g><path style="opacity:1" fill="#edfbe9" d="M 990.5,215.5 C 994.264,236.532 995.431,257.866 994,279.5C 993.825,284.019 993.325,288.353 992.5,292.5C 992.646,283.329 992.979,274.162 993.5,265C 992.902,248.461 991.902,231.961 990.5,215.5 Z"/></g>
<g><path style="opacity:1" fill="#96c18a" d="M 495.5,297.5 C 507.824,298.119 520.157,298.619 532.5,299C 538.625,301.224 544.959,302.557 551.5,303C 552.942,303.377 553.942,304.21 554.5,305.5C 546.813,304.162 539.146,302.662 531.5,301C 522.5,300.667 513.5,300.333 504.5,300C 501.149,299.943 498.149,299.109 495.5,297.5 Z"/></g>
<g><path style="opacity:1" fill="#96c28a" d="M 988.5,200.5 C 989.804,204.067 990.971,207.734 992,211.5C 992.333,214.833 992.667,218.167 993,221.5C 993.984,219.205 994.817,219.539 995.5,222.5C 994.88,225.278 994.547,228.111 994.5,231C 994.382,234.027 994.882,236.861 996,239.5C 998.074,278.988 993.241,317.321 981.5,354.5C 984.069,354.738 985.735,356.071 986.5,358.5C 983.62,358.06 980.954,357.06 978.5,355.5C 977.833,355.5 977.5,355.167 977.5,354.5C 978.497,354.53 979.164,354.03 979.5,353C 986.137,333.35 990.47,313.184 992.5,292.5C 993.325,288.353 993.825,284.019 994,279.5C 995.431,257.866 994.264,236.532 990.5,215.5C 989.352,210.57 988.685,205.57 988.5,200.5 Z"/></g>
<g><path style="opacity:1" fill="#95c288" d="M 1109.5,310.5 C 1099.69,317.579 1090.03,324.912 1080.5,332.5C 1081.14,330.201 1082.14,328.034 1083.5,326C 1090.27,322.918 1096.27,318.584 1101.5,313C 1104.28,312.439 1106.95,311.606 1109.5,310.5 Z"/></g>
<g><path style="opacity:1" fill="#93c386" d="M 665.5,299.5 C 673.819,316.088 682.152,332.754 690.5,349.5C 688.037,346.641 685.537,343.641 683,340.5C 681.535,335.773 679.869,331.107 678,326.5C 677.147,324.875 676.147,324.542 675,325.5C 672.685,322.223 671.351,318.556 671,314.5C 667.488,310.121 665.655,305.121 665.5,299.5 Z"/></g>
<g><path style="opacity:1" fill="#2f2f2f" d="M 977.5,354.5 C 977.5,355.167 977.833,355.5 978.5,355.5C 978.5,356.833 978.5,358.167 978.5,359.5C 988.004,360.849 996.337,364.682 1003.5,371C 1005.81,371.662 1008.15,372.162 1010.5,372.5C 1017.75,376.41 1024.75,380.744 1031.5,385.5C 1121.36,452.559 1164.69,542.559 1161.5,655.5C 1160.26,673.259 1157.6,690.926 1153.5,708.5C 1128.73,802.905 1073.07,872.238 986.5,916.5C 965.995,925.445 944.995,932.779 923.5,938.5C 916.288,939.394 909.288,940.727 902.5,942.5C 789.734,957.079 695.068,922.745 618.5,839.5C 608.006,825.844 598.006,811.844 588.5,797.5C 555.97,742.713 541.304,683.38 544.5,619.5C 548.78,599.481 552.114,579.148 554.5,558.5C 554.5,558.167 554.5,557.833 554.5,557.5C 573.478,490.497 610.145,435.497 664.5,392.5C 676.648,383.347 689.315,375.014 702.5,367.5C 792.09,320.268 883.757,315.934 977.5,354.5 Z"/></g>
<g><path style="opacity:1" fill="#94c288" d="M 617.5,341.5 C 629.096,350.593 639.929,360.593 650,371.5C 650.483,372.448 650.649,373.448 650.5,374.5C 639.833,363.167 628.833,352.167 617.5,341.5 Z"/></g>
<g><path style="opacity:1" fill="#2a3727" d="M 978.5,355.5 C 980.954,357.06 983.62,358.06 986.5,358.5C 994.5,363.167 1002.5,367.833 1010.5,372.5C 1008.15,372.162 1005.81,371.662 1003.5,371C 996.337,364.682 988.004,360.849 978.5,359.5C 978.5,358.167 978.5,356.833 978.5,355.5 Z"/></g>
<g><path style="opacity:1" fill="#fefefd" d="M 947.5,415.5 C 936.514,436.125 922.18,454.125 904.5,469.5C 883.114,486.138 858.781,493.138 831.5,490.5C 807.717,484.94 787.05,473.607 769.5,456.5C 763.946,448.467 757.446,441.134 750,434.5C 749.111,431.611 747.778,428.945 746,426.5C 745.329,425.748 744.496,425.414 743.5,425.5C 742.596,424.791 742.263,423.791 742.5,422.5C 809.887,389.081 878.22,386.748 947.5,415.5 Z"/></g>
<g><path style="opacity:1" fill="#c0de99" d="M 947.5,415.5 C 951.912,416.97 956.245,418.637 960.5,420.5C 970.13,425.65 979.464,431.316 988.5,437.5C 991.81,439.482 994.81,441.815 997.5,444.5C 993.547,458.978 990.547,473.645 988.5,488.5C 987.169,495.301 986.503,502.467 986.5,510C 986.873,518.011 986.873,525.844 986.5,533.5C 987.719,537.271 989.385,540.605 991.5,543.5C 996.852,566.347 1008.52,585.513 1026.5,601C 1047.03,618.363 1069.69,632.196 1094.5,642.5C 1094.5,646.833 1094.5,651.167 1094.5,655.5C 1092.67,669.443 1090.33,683.443 1087.5,697.5C 1086.25,700.163 1085.25,702.83 1084.5,705.5C 1054.36,710.604 1026.03,720.437 999.5,735C 989.056,741.452 979.889,749.286 972,758.5C 966.351,767.982 961.851,777.982 958.5,788.5C 956.386,789.36 955.22,791.027 955,793.5C 953.682,814.056 954.516,834.39 957.5,854.5C 947.339,857.484 937.005,860.984 926.5,865C 923.552,866.237 920.885,867.737 918.5,869.5C 909.558,872.774 900.224,874.774 890.5,875.5C 872.714,841.213 847.714,813.38 815.5,792C 810.255,789.24 804.921,786.74 799.5,784.5C 796.914,783.52 794.247,783.187 791.5,783.5C 787.132,781.654 782.465,780.487 777.5,780C 760.952,779.307 744.619,780.974 728.5,785C 726.277,785.566 724.277,786.4 722.5,787.5C 709.726,790.703 697.393,795.203 685.5,801C 683.141,802.242 681.141,803.742 679.5,805.5C 665.33,791.493 653.33,775.826 643.5,758.5C 659.024,748.145 673.191,736.145 686,722.5C 692.08,715.409 697.413,707.742 702,699.5C 702.49,698.207 702.657,696.873 702.5,695.5C 706.313,688.112 707.48,680.112 706,671.5C 704.468,663.333 700.968,656.333 695.5,650.5C 693.107,646.598 690.107,643.098 686.5,640C 679.767,635.304 672.767,631.137 665.5,627.5C 665.586,626.504 665.252,625.671 664.5,625C 657.542,623.124 650.875,620.457 644.5,617C 634.397,616.038 624.397,614.538 614.5,612.5C 615.556,599.75 617.889,587.25 621.5,575C 637.154,575.437 652.821,575.437 668.5,575C 673.104,573.939 677.771,573.273 682.5,573C 683.942,572.623 684.942,571.79 685.5,570.5C 716.634,560.61 729.801,539.277 725,506.5C 720.923,485.722 713.089,466.722 701.5,449.5C 713.931,438.774 727.597,429.774 742.5,422.5C 742.263,423.791 742.596,424.791 743.5,425.5C 745.158,428.816 746.825,432.15 748.5,435.5C 755.735,442.339 762.735,449.339 769.5,456.5C 787.05,473.607 807.717,484.94 831.5,490.5C 836.077,491.99 840.91,492.656 846,492.5C 853.23,492.234 860.397,491.401 867.5,490C 872.601,487.745 877.934,486.079 883.5,485C 887.953,481.44 892.953,478.94 898.5,477.5C 900.509,474.804 902.509,472.137 904.5,469.5C 922.18,454.125 936.514,436.125 947.5,415.5 Z"/></g>
<g><path style="opacity:1" fill="#31382a" d="M 988.5,437.5 C 979.464,431.316 970.13,425.65 960.5,420.5C 962.401,420.567 964.234,420.233 966,419.5C 967.826,420.01 967.993,420.844 966.5,422C 970.214,425.191 974.548,427.357 979.5,428.5C 981.707,431.205 984.374,433.371 987.5,435C 988.252,435.671 988.586,436.504 988.5,437.5 Z"/></g>
<g><path style="opacity:1" fill="#f1fae6" d="M 743.5,425.5 C 744.496,425.414 745.329,425.748 746,426.5C 747.778,428.945 749.111,431.611 750,434.5C 757.446,441.134 763.946,448.467 769.5,456.5C 762.735,449.339 755.735,442.339 748.5,435.5C 746.825,432.15 745.158,428.816 743.5,425.5 Z"/></g>
<g><path style="opacity:1" fill="#fdfefd" d="M 997.5,444.5 C 1046.42,480.949 1077.26,529.282 1090,589.5C 1093.85,606.962 1095.35,624.628 1094.5,642.5C 1069.69,632.196 1047.03,618.363 1026.5,601C 1008.52,585.513 996.852,566.347 991.5,543.5C 988.776,525.296 987.776,506.963 988.5,488.5C 990.547,473.645 993.547,458.978 997.5,444.5 Z"/></g>
<g><path style="opacity:1" fill="#fdfefd" d="M 701.5,449.5 C 713.089,466.722 720.923,485.722 725,506.5C 729.801,539.277 716.634,560.61 685.5,570.5C 664.271,573.686 642.938,574.353 621.5,572.5C 621.5,571.167 621.5,569.833 621.5,568.5C 635.983,520.502 662.65,480.836 701.5,449.5 Z"/></g>
<g><path style="opacity:1" fill="#c8dea9" d="M 904.5,469.5 C 902.509,472.137 900.509,474.804 898.5,477.5C 892.953,478.94 887.953,481.44 883.5,485C 877.934,486.079 872.601,487.745 867.5,490C 860.397,491.401 853.23,492.234 846,492.5C 840.91,492.656 836.077,491.99 831.5,490.5C 858.781,493.138 883.114,486.138 904.5,469.5 Z"/></g>
<g><path style="opacity:1" fill="#87c377" d="M 430.5,501.5 C 435.938,504.053 441.271,506.887 446.5,510C 468.322,529.915 493.655,543.582 522.5,551C 532.988,554.123 543.655,556.289 554.5,557.5C 554.5,557.833 554.5,558.167 554.5,558.5C 549.392,577.727 546.059,597.394 544.5,617.5C 506.962,627.098 474.296,645.264 446.5,672C 412.179,693.973 376.513,696.306 339.5,679C 322.546,669.215 309.546,655.715 300.5,638.5C 298.046,631.57 295.546,624.57 293,617.5C 291.189,609.412 290.023,600.912 289.5,592C 289.907,586.916 290.573,581.916 291.5,577C 290.919,576.107 290.585,575.107 290.5,574C 291.949,569.252 292.949,564.419 293.5,559.5C 295.229,551.38 298.562,544.046 303.5,537.5C 304.833,537.5 306.167,537.5 307.5,537.5C 307.357,535.738 307.691,534.071 308.5,532.5C 310.804,530.569 312.638,528.236 314,525.5C 320.919,518.735 328.086,512.402 335.5,506.5C 343.358,503.954 351.024,500.788 358.5,497C 371.553,492.949 384.886,491.616 398.5,493C 398.167,493.333 397.833,493.667 397.5,494C 404.011,494.068 410.344,495.068 416.5,497C 415.007,498.156 415.174,498.99 417,499.5C 417.873,499.265 418.707,498.931 419.5,498.5C 420.696,498.846 420.696,499.346 419.5,500C 423.191,500.42 426.858,500.92 430.5,501.5 Z"/></g>
<g><path style="opacity:1" fill="#93c186" d="M 430.5,501.5 C 426.858,500.92 423.191,500.42 419.5,500C 420.696,499.346 420.696,498.846 419.5,498.5C 418.707,498.931 417.873,499.265 417,499.5C 415.174,498.99 415.007,498.156 416.5,497C 410.344,495.068 404.011,494.068 397.5,494C 397.833,493.667 398.167,493.333 398.5,493C 384.886,491.616 371.553,492.949 358.5,497C 351.024,500.788 343.358,503.954 335.5,506.5C 339.905,502.843 344.905,500.009 350.5,498C 371.497,490.551 392.83,489.551 414.5,495C 420.214,496.509 425.548,498.675 430.5,501.5 Z"/></g>
<g><path style="opacity:1" fill="#cbe1ae" d="M 988.5,488.5 C 987.776,506.963 988.776,525.296 991.5,543.5C 989.385,540.605 987.719,537.271 986.5,533.5C 986.873,525.844 986.873,518.011 986.5,510C 986.503,502.467 987.169,495.301 988.5,488.5 Z"/></g>
<g><path style="opacity:1" fill="#97c38b" d="M 335.5,506.5 C 328.086,512.402 320.919,518.735 314,525.5C 312.638,528.236 310.804,530.569 308.5,532.5C 307.691,534.071 307.357,535.738 307.5,537.5C 306.167,537.5 304.833,537.5 303.5,537.5C 311.548,524.452 322.215,514.118 335.5,506.5 Z"/></g>
<g><path style="opacity:1" fill="#87c377" d="M 844.5,561.5 C 881.919,560.446 908.419,576.779 924,610.5C 932.768,638.136 928.434,663.47 911,686.5C 883.627,714.368 852.127,720.202 816.5,704C 785.688,684.618 773.188,656.785 779,620.5C 788.767,587.225 810.6,567.558 844.5,561.5 Z"/></g>
<g><path style="opacity:1" fill="#c4daa7" d="M 621.5,568.5 C 621.5,569.833 621.5,571.167 621.5,572.5C 642.938,574.353 664.271,573.686 685.5,570.5C 684.942,571.79 683.942,572.623 682.5,573C 677.771,573.273 673.104,573.939 668.5,575C 652.821,575.437 637.154,575.437 621.5,575C 617.889,587.25 615.556,599.75 614.5,612.5C 624.397,614.538 634.397,616.038 644.5,617C 650.875,620.457 657.542,623.124 664.5,625C 665.252,625.671 665.586,626.504 665.5,627.5C 648.5,620.5 630.834,616.166 612.5,614.5C 613.879,598.739 616.879,583.406 621.5,568.5 Z"/></g>
<g><path style="opacity:1" fill="#2e3c2b" d="M 554.5,558.5 C 552.114,579.148 548.78,599.481 544.5,619.5C 544.5,618.833 544.5,618.167 544.5,617.5C 546.059,597.394 549.392,577.727 554.5,558.5 Z"/></g>
<g><path style="opacity:1" fill="#93c187" d="M 293.5,559.5 C 292.949,564.419 291.949,569.252 290.5,574C 290.585,575.107 290.919,576.107 291.5,577C 290.573,581.916 289.907,586.916 289.5,592C 290.023,600.912 291.189,609.412 293,617.5C 295.546,624.57 298.046,631.57 300.5,638.5C 290.554,620.191 286.387,600.524 288,579.5C 288.69,572.391 290.524,565.724 293.5,559.5 Z"/></g>
<g><path style="opacity:1" fill="#fefefd" d="M 612.5,614.5 C 630.834,616.166 648.5,620.5 665.5,627.5C 672.767,631.137 679.767,635.304 686.5,640C 690.107,643.098 693.107,646.598 695.5,650.5C 698.298,656.77 701.132,663.104 704,669.5C 704.865,678.262 704.365,686.929 702.5,695.5C 702.657,696.873 702.49,698.207 702,699.5C 697.413,707.742 692.08,715.409 686,722.5C 673.191,736.145 659.024,748.145 643.5,758.5C 618.199,713.728 607.866,665.728 612.5,614.5 Z"/></g>
<g><path style="opacity:1" fill="#87c377" d="M 1359.5,640.5 C 1382.81,645.832 1400.81,658.499 1413.5,678.5C 1416.65,684.779 1419.65,691.113 1422.5,697.5C 1424.25,700.146 1425.25,703.146 1425.5,706.5C 1425.89,713.159 1426.23,719.826 1426.5,726.5C 1426.15,735.584 1425.15,744.584 1423.5,753.5C 1421.8,760.621 1419.13,767.288 1415.5,773.5C 1409.43,782.742 1402.09,790.908 1393.5,798C 1384.18,804.993 1373.85,809.827 1362.5,812.5C 1359.17,811.647 1356.01,811.314 1353,811.5C 1352.63,812.416 1352.13,813.25 1351.5,814C 1341.83,814.667 1332.17,814.667 1322.5,814C 1320.11,812.139 1317.45,810.806 1314.5,810C 1316.87,808.529 1316.87,807.363 1314.5,806.5C 1312.74,805.554 1311.08,805.554 1309.5,806.5C 1310.17,807.167 1310.83,807.833 1311.5,808.5C 1311,808.833 1310.5,809.167 1310,809.5C 1302.73,807.474 1295.89,804.807 1289.5,801.5C 1286.22,800.191 1283.22,798.358 1280.5,796C 1258.76,769.25 1233.09,747.25 1203.5,730C 1190.9,723.862 1178.23,718.029 1165.5,712.5C 1165.59,711.504 1165.25,710.671 1164.5,710C 1165.17,709.333 1165.83,708.667 1166.5,708C 1163.17,707.828 1159.84,707.995 1156.5,708.5C 1158.88,692.971 1160.88,677.304 1162.5,661.5C 1171.31,662.089 1180.15,662.422 1189,662.5C 1196.53,662.497 1203.7,661.831 1210.5,660.5C 1242.69,657.528 1274.36,651.861 1305.5,643.5C 1308.09,642.873 1310.59,642.873 1313,643.5C 1318.51,641.062 1324.34,639.562 1330.5,639C 1340.34,638.251 1350.01,638.751 1359.5,640.5 Z"/></g>
<g><path style="opacity:1" fill="#94c287" d="M 1359.5,640.5 C 1350.01,638.751 1340.34,638.251 1330.5,639C 1324.34,639.562 1318.51,641.062 1313,643.5C 1310.59,642.873 1308.09,642.873 1305.5,643.5C 1311.12,640.796 1317.12,638.963 1323.5,638C 1332.83,637.333 1342.17,637.333 1351.5,638C 1354.38,638.546 1357.05,639.379 1359.5,640.5 Z"/></g>
<g><path style="opacity:1" fill="#f4fce9" d="M 695.5,650.5 C 700.968,656.333 704.468,663.333 706,671.5C 707.48,680.112 706.313,688.112 702.5,695.5C 704.365,686.929 704.865,678.262 704,669.5C 701.132,663.104 698.298,656.77 695.5,650.5 Z"/></g>
<g><path style="opacity:1" fill="#343c2c" d="M 1094.5,655.5 C 1094.67,662.175 1094.5,668.842 1094,675.5C 1092.99,681.638 1091.66,687.638 1090,693.5C 1089.39,695.066 1088.56,696.4 1087.5,697.5C 1090.33,683.443 1092.67,669.443 1094.5,655.5 Z"/></g>
<g><path style="opacity:1" fill="#9bc691" d="M 1413.5,678.5 C 1418.21,683.944 1421.21,690.278 1422.5,697.5C 1419.65,691.113 1416.65,684.779 1413.5,678.5 Z"/></g>
<g><path style="opacity:1" fill="#8bb87e" d="M 1161.5,655.5 C 1161.5,656.833 1161.5,658.167 1161.5,659.5C 1177.81,660.406 1194.15,660.74 1210.5,660.5C 1203.7,661.831 1196.53,662.497 1189,662.5C 1180.15,662.422 1171.31,662.089 1162.5,661.5C 1160.88,677.304 1158.88,692.971 1156.5,708.5C 1159.84,707.995 1163.17,707.828 1166.5,708C 1165.83,708.667 1165.17,709.333 1164.5,710C 1165.25,710.671 1165.59,711.504 1165.5,712.5C 1161.28,711.762 1157.28,710.428 1153.5,708.5C 1157.6,690.926 1160.26,673.259 1161.5,655.5 Z"/></g>
<g><path style="opacity:1" fill="#fdfefd" d="M 1084.5,705.5 C 1066.86,764.323 1032.19,810.156 980.5,843C 973.937,846.78 967.271,850.28 960.5,853.5C 959.4,851.723 958.566,849.723 958,847.5C 954.601,827.772 954.768,808.106 958.5,788.5C 961.851,777.982 966.351,767.982 972,758.5C 979.889,749.286 989.056,741.452 999.5,735C 1026.03,720.437 1054.36,710.604 1084.5,705.5 Z"/></g>
<g><path style="opacity:1" fill="#94c187" d="M 1425.5,706.5 C 1427.18,710.545 1427.84,714.878 1427.5,719.5C 1427.67,726.508 1427.5,733.508 1427,740.5C 1426.33,745.115 1425.17,749.449 1423.5,753.5C 1425.15,744.584 1426.15,735.584 1426.5,726.5C 1426.23,719.826 1425.89,713.159 1425.5,706.5 Z"/></g>
<g><path style="opacity:1" fill="#e9f8e4" d="M 1427.5,719.5 C 1428.65,730.491 1428.65,741.491 1427.5,752.5C 1424.39,758.302 1421.56,764.302 1419,770.5C 1417.96,771.71 1416.79,772.71 1415.5,773.5C 1419.13,767.288 1421.8,760.621 1423.5,753.5C 1425.17,749.449 1426.33,745.115 1427,740.5C 1427.5,733.508 1427.67,726.508 1427.5,719.5 Z"/></g>
<g><path style="opacity:1" fill="#f3fae7" d="M 791.5,783.5 C 780.56,781.77 769.56,781.27 758.5,782C 746.386,783.297 734.386,785.13 722.5,787.5C 724.277,786.4 726.277,785.566 728.5,785C 744.619,780.974 760.952,779.307 777.5,780C 782.465,780.487 787.132,781.654 791.5,783.5 Z"/></g>
<g><path style="opacity:1" fill="#fdfdfd" d="M 791.5,783.5 C 794.247,783.187 796.914,783.52 799.5,784.5C 804.921,786.74 810.255,789.24 815.5,792C 847.714,813.38 872.714,841.213 890.5,875.5C 808.409,887.358 738.076,864.025 679.5,805.5C 681.141,803.742 683.141,802.242 685.5,801C 697.393,795.203 709.726,790.703 722.5,787.5C 734.386,785.13 746.386,783.297 758.5,782C 769.56,781.27 780.56,781.77 791.5,783.5 Z"/></g>
<g><path style="opacity:1" fill="#87c377" d="M 588.5,797.5 C 598.006,811.844 608.006,825.844 618.5,839.5C 589.966,858.514 562.966,879.681 537.5,903C 502.688,938.128 472.854,976.962 448,1019.5C 428.611,1051.61 411.278,1084.94 396,1119.5C 383.064,1139.6 365.898,1154.94 344.5,1165.5C 329.172,1168.61 315.505,1172.28 303.5,1176.5C 292.817,1176.57 282.15,1176.24 271.5,1175.5C 269.901,1175.77 268.568,1175.43 267.5,1174.5C 262.101,1172.25 256.434,1170.41 250.5,1169C 247.53,1167.85 244.863,1166.18 242.5,1164C 239.883,1163.18 237.216,1162.68 234.5,1162.5C 203.672,1144.98 183.672,1118.98 174.5,1084.5C 171.399,1068.94 170.732,1053.27 172.5,1037.5C 175.204,1031.88 177.037,1025.88 178,1019.5C 180.665,1014.12 183.332,1008.78 186,1003.5C 186.494,1001.87 186.66,1000.2 186.5,998.5C 198.22,976.447 215.22,959.78 237.5,948.5C 239.927,948.477 242.26,947.977 244.5,947C 248.604,944.553 252.938,942.553 257.5,941C 270.257,937.989 282.924,935.655 295.5,934C 296.381,933.292 297.047,932.458 297.5,931.5C 327.525,923.655 357.525,915.155 387.5,906C 461.766,882.874 528.766,846.707 588.5,797.5 Z"/></g>
<g><path style="opacity:1" fill="#91c284" d="M 1289.5,801.5 C 1295.89,804.807 1302.73,807.474 1310,809.5C 1310.5,809.167 1311,808.833 1311.5,808.5C 1310.83,807.833 1310.17,807.167 1309.5,806.5C 1311.08,805.554 1312.74,805.554 1314.5,806.5C 1316.87,807.363 1316.87,808.529 1314.5,810C 1317.45,810.806 1320.11,812.139 1322.5,814C 1332.17,814.667 1341.83,814.667 1351.5,814C 1352.13,813.25 1352.63,812.416 1353,811.5C 1356.01,811.314 1359.17,811.647 1362.5,812.5C 1359.01,813.875 1355.34,815.041 1351.5,816C 1334.94,817.93 1318.94,815.93 1303.5,810C 1298.27,807.894 1293.6,805.061 1289.5,801.5 Z"/></g>
<g><path style="opacity:1" fill="#c6dba9" d="M 958.5,788.5 C 954.768,808.106 954.601,827.772 958,847.5C 958.566,849.723 959.4,851.723 960.5,853.5C 947.249,860.587 933.249,865.92 918.5,869.5C 920.885,867.737 923.552,866.237 926.5,865C 937.005,860.984 947.339,857.484 957.5,854.5C 954.516,834.39 953.682,814.056 955,793.5C 955.22,791.027 956.386,789.36 958.5,788.5 Z"/></g>
<g><path style="opacity:1" fill="#87c377" d="M 986.5,916.5 C 1026.59,980.451 1076.26,1036.28 1135.5,1084C 1161.86,1106.9 1178.19,1135.4 1184.5,1169.5C 1186.38,1188.3 1185.54,1206.97 1182,1225.5C 1179.71,1227.52 1179.21,1229.85 1180.5,1232.5C 1178.85,1237.44 1177.52,1242.44 1176.5,1247.5C 1162.82,1283.68 1138.49,1310.18 1103.5,1327C 1093.83,1331.28 1083.83,1334.44 1073.5,1336.5C 1056.28,1338.49 1038.94,1338.99 1021.5,1338C 1020.05,1336.88 1018.38,1336.22 1016.5,1336C 1011.5,1335.39 1006.5,1334.89 1001.5,1334.5C 988.206,1329.35 975.539,1322.85 963.5,1315C 962.207,1314.51 960.873,1314.34 959.5,1314.5C 946.591,1306.93 935.925,1296.93 927.5,1284.5C 927.649,1283.45 927.483,1282.45 927,1281.5C 920.987,1275.29 917.154,1267.95 915.5,1259.5C 913.978,1258.44 912.312,1257.77 910.5,1257.5C 910.5,1257.17 910.5,1256.83 910.5,1256.5C 910.384,1253.14 910.051,1249.81 909.5,1246.5C 908.5,1246.5 907.5,1246.5 906.5,1246.5C 903.895,1236.55 901.395,1226.55 899,1216.5C 898.333,1203.17 898.333,1189.83 899,1176.5C 910.358,1120.09 915.858,1062.92 915.5,1005C 915.141,1002.7 914.141,1000.87 912.5,999.5C 911.616,991.665 910.95,983.665 910.5,975.5C 910.408,964.778 909.908,954.111 909,943.5C 914.087,942.305 918.92,940.639 923.5,938.5C 944.995,932.779 965.995,925.445 986.5,916.5 Z"/></g>
<g><path style="opacity:1" fill="#97c38b" d="M 297.5,931.5 C 297.047,932.458 296.381,933.292 295.5,934C 282.924,935.655 270.257,937.989 257.5,941C 252.938,942.553 248.604,944.553 244.5,947C 242.26,947.977 239.927,948.477 237.5,948.5C 243.367,944.814 249.7,941.981 256.5,940C 270.166,937.1 283.833,934.267 297.5,931.5 Z"/></g>
<g><path style="opacity:1" fill="#92be87" d="M 923.5,938.5 C 918.92,940.639 914.087,942.305 909,943.5C 909.908,954.111 910.408,964.778 910.5,975.5C 908.446,964.731 907.113,953.731 906.5,942.5C 905.167,942.5 903.833,942.5 902.5,942.5C 909.288,940.727 916.288,939.394 923.5,938.5 Z"/></g>
<g><path style="opacity:1" fill="#303030" d="M 711.5,951.5 C 731.218,950.599 743.718,959.599 749,978.5C 748.989,1004.84 735.823,1017.01 709.5,1015C 691.643,1008.79 683.809,996.286 686,977.5C 689.3,963.701 697.8,955.034 711.5,951.5 Z"/></g>
<g><path style="opacity:1" fill="#99c48c" d="M 186.5,998.5 C 186.66,1000.2 186.494,1001.87 186,1003.5C 183.332,1008.78 180.665,1014.12 178,1019.5C 177.037,1025.88 175.204,1031.88 172.5,1037.5C 174.178,1025.47 177.845,1014.13 183.5,1003.5C 184.263,1001.63 185.263,999.965 186.5,998.5 Z"/></g>
<g><path style="opacity:1" fill="#2f2f2f" d="M 673.5,1020.5 C 703.416,1019.62 722.916,1033.28 732,1061.5C 733.276,1072.73 732.276,1083.73 729,1094.5C 701.534,1161.43 673.534,1228.09 645,1294.5C 630.069,1313.92 610.569,1321.09 586.5,1316C 557.414,1304.67 545.248,1283.51 550,1252.5C 577.447,1184.27 605.447,1116.27 634,1048.5C 642.939,1033.12 656.106,1023.79 673.5,1020.5 Z"/></g>
<g><path style="opacity:1" fill="#97c48b" d="M 912.5,999.5 C 914.141,1000.87 915.141,1002.7 915.5,1005C 915.858,1062.92 910.358,1120.09 899,1176.5C 898.333,1189.83 898.333,1203.17 899,1216.5C 901.395,1226.55 903.895,1236.55 906.5,1246.5C 907.5,1246.5 908.5,1246.5 909.5,1246.5C 910.051,1249.81 910.384,1253.14 910.5,1256.5C 906.933,1249.82 903.933,1242.82 901.5,1235.5C 896.663,1215.75 895.33,1195.75 897.5,1175.5C 908.933,1117.45 913.933,1058.78 912.5,999.5 Z"/></g>
<g><path style="opacity:1" fill="#effbeb" d="M 183.5,1003.5 C 177.845,1014.13 174.178,1025.47 172.5,1037.5C 170.732,1053.27 171.399,1068.94 174.5,1084.5C 172.915,1082.17 171.749,1079.5 171,1076.5C 167.52,1051.47 170.854,1027.47 181,1004.5C 181.671,1003.75 182.504,1003.41 183.5,1003.5 Z"/></g>
<g><path style="opacity:1" fill="#9ac48f" d="M 234.5,1162.5 C 237.216,1162.68 239.883,1163.18 242.5,1164C 244.863,1166.18 247.53,1167.85 250.5,1169C 256.434,1170.41 262.101,1172.25 267.5,1174.5C 255.524,1172.84 244.524,1168.84 234.5,1162.5 Z"/></g>
<g><path style="opacity:1" fill="#93c286" d="M 344.5,1165.5 C 331.715,1172.03 318.049,1175.7 303.5,1176.5C 315.505,1172.28 329.172,1168.61 344.5,1165.5 Z"/></g>
<g><path style="opacity:1" fill="#a1c995" d="M 271.5,1175.5 C 282.15,1176.24 292.817,1176.57 303.5,1176.5C 299.681,1177.17 295.681,1177.5 291.5,1177.5C 284.608,1177.61 277.942,1176.94 271.5,1175.5 Z"/></g>
<g><path style="opacity:1" fill="#edfbe9" d="M 897.5,1175.5 C 895.33,1195.75 896.663,1215.75 901.5,1235.5C 897.514,1226.09 895.348,1216.09 895,1205.5C 894.333,1198.17 894.333,1190.83 895,1183.5C 895.279,1180.54 896.113,1177.88 897.5,1175.5 Z"/></g>
<g><path style="opacity:1" fill="#97c38b" d="M 1184.5,1169.5 C 1187.43,1189.76 1186.93,1210.09 1183,1230.5C 1181.28,1236.4 1179.12,1242.06 1176.5,1247.5C 1177.52,1242.44 1178.85,1237.44 1180.5,1232.5C 1179.21,1229.85 1179.71,1227.52 1182,1225.5C 1185.54,1206.97 1186.38,1188.3 1184.5,1169.5 Z"/></g>
<g><path style="opacity:1" fill="#94c187" d="M 910.5,1257.5 C 912.312,1257.77 913.978,1258.44 915.5,1259.5C 917.154,1267.95 920.987,1275.29 927,1281.5C 927.483,1282.45 927.649,1283.45 927.5,1284.5C 920.584,1276.35 914.918,1267.35 910.5,1257.5 Z"/></g>
<g><path style="opacity:1" fill="#96c28a" d="M 959.5,1314.5 C 960.873,1314.34 962.207,1314.51 963.5,1315C 975.539,1322.85 988.206,1329.35 1001.5,1334.5C 985.951,1330.92 971.951,1324.25 959.5,1314.5 Z"/></g>
<g><path style="opacity:1" fill="#95c289" d="M 1001.5,1334.5 C 1006.5,1334.89 1011.5,1335.39 1016.5,1336C 1018.38,1336.22 1020.05,1336.88 1021.5,1338C 1038.94,1338.99 1056.28,1338.49 1073.5,1336.5C 1062.52,1339.62 1051.19,1340.95 1039.5,1340.5C 1026.28,1341.07 1013.61,1339.07 1001.5,1334.5 Z"/></g>
</svg>
